<?xml version="1.0" standalone="no"?>
<!DOCTYPE svg PUBLIC "-//W3C//DTD SVG 20010904//EN"
 "http://www.w3.org/TR/2001/REC-SVG-20010904/DTD/svg10.dtd">
<svg version="1.0" xmlns="http://www.w3.org/2000/svg"
 width="1267.000000pt" height="1280.000000pt" viewBox="0 0 1267.000000 1280.000000"
 preserveAspectRatio="xMidYMid meet">
<metadata>
Created by potrace 1.15, written by Peter Selinger 2001-2017
</metadata>
<g transform="translate(0.000000,1280.000000) scale(0.100000,-0.100000)"
fill="#000000" stroke="none">
<path d="M11845 12790 c-652 -50 -1136 -233 -1477 -558 -181 -172 -869 -991
-1414 -1682 -1090 -1382 -2308 -3110 -3507 -4975 -99 -154 -200 -304 -224
-333 -85 -99 -184 -147 -243 -117 -100 52 -256 380 -485 1025 -122 343 -191
473 -306 573 -158 138 -353 150 -679 41 -334 -111 -740 -375 -890 -579 -147
-199 -154 -343 -41 -800 101 -405 404 -1332 597 -1820 88 -222 260 -576 334
-688 60 -91 159 -200 210 -232 82 -51 172 -63 560 -74 535 -15 778 18 984 133
130 73 152 100 541 686 1993 2997 4026 5709 6302 8406 290 344 405 488 470
592 55 88 92 176 93 218 0 72 -85 142 -205 169 -84 19 -452 28 -620 15z"/>
<path d="M5955 12083 c-765 -36 -1413 -173 -2086 -438 -627 -248 -1215 -601
-1738 -1043 -168 -142 -571 -545 -710 -711 -811 -965 -1276 -2070 -1398 -3321
-21 -219 -24 -787 -5 -995 76 -827 284 -1552 648 -2254 555 -1070 1433 -1963
2512 -2555 655 -360 1436 -615 2176 -711 873 -113 1761 -47 2593 194 838 242
1632 671 2311 1246 179 152 564 541 717 725 1182 1419 1642 3228 1279 5030
-181 899 -598 1784 -1196 2541 -27 34 -28 34 -46 14 -15 -15 -461 -533 -549
-636 -12 -15 -1 -33 93 -155 553 -719 838 -1510 904 -2518 14 -208 14 -664 0
-836 -81 -1030 -465 -1997 -1114 -2805 -582 -724 -1366 -1292 -2243 -1624
-1237 -468 -2622 -464 -3855 10 -400 154 -755 341 -1113 588 -476 327 -922
763 -1268 1239 -268 367 -512 830 -667 1263 -597 1664 -286 3508 824 4894 418
522 959 979 1541 1303 1019 566 2167 780 3425 636 515 -58 960 -190 1425 -420
82 -40 152 -70 156 -66 37 42 539 694 539 700 0 9 -317 165 -445 220 -488 210
-1007 353 -1545 427 -365 50 -841 74 -1165 58z"/>
</g>
</svg>
